<?xml version="1.0" standalone="yes"?>
<svg xmlns="http://www.w3.org/2000/svg" width="1748" height="1240">
<path style="fill:#ffffff; stroke:none;" d="M0 0L0 1240L1748 1240L1748 0L0 0z"/>
<path style="fill:#bac9d9; stroke:none;" d="M408 443L408 681L1137 681L1137 443L1136 443L1136 680L409 680L409 515L409 466L408 443z"/>
<path style="fill:#98afc7; stroke:none;" d="M409 443L409 444L1136 444L1114 443L1070 443L920 443L409 443z"/>
<path style="fill:#7694b4; stroke:none;" d="M409 444L409 680L1136 680L1136 444L409 444z"/>
<path style="fill:#bbeedd; stroke:none;" d="M441.156 488.845C433.464 492.285 437 512.989 437 520L437 601C437 608.115 433.923 624.941 438.717 630.588C443.692 636.447 463.829 633 471 633L546 633C554.972 633 569.6 635.806 577.899 632.283C585.625 629.002 582 607.022 582 600L582 522C582 514.165 585.067 498.053 580.85 491.298C576.563 484.43 555.163 488 548 488L473 488C464.085 488 449.357 485.177 441.156 488.845z"/>
<path style="fill:#607a72; stroke:none;" d="M465 528L465 529L470 529L465 528z"/>
<path style="fill:#8bb1a5; stroke:none;" d="M478 528L478 529L496 529L478 528z"/>
<path style="fill:#5d776e; stroke:none;" d="M496 528L496 529L506 529L496 528z"/>
<path style="fill:#2e3b37; stroke:none;" d="M506 528L506 529L511 529L506 528z"/>
<path style="fill:#000000; stroke:none;" d="M456 530L456 531L465 530C465 547.245 473.961 585.078 454 592L454 593C460.695 592.805 483.365 593.872 487 589C473.216 588.301 475.135 571.149 476 561L490.287 561.831L495 569L495 552C487.661 557.638 486.044 559 476 559C476.012 552.962 474.545 536.091 478.845 531.717C489.398 520.983 508.819 538.023 509 549L512 549L514 531L515 531C515 548.227 524.082 585.036 504 592L504 593C510.695 592.805 533.365 593.872 537 589C523.216 588.301 525.135 571.149 526 561L540.287 561.831L545 569L545 552C537.661 557.638 536.044 559 526 559C526.012 552.962 524.545 536.091 528.845 531.717C539.398 520.983 558.82 538.023 559 549L562 549C561.887 540.729 561.846 536.413 566 529C554.011 526.366 538.435 529.004 526 529C503.423 528.992 478.3 525.951 456 530z"/>
<path style="fill:#607a72; stroke:none;" d="M515 528L515 529L520 529L515 528z"/>
<path style="fill:#8bb0a4; stroke:none;" d="M528 528L528 529L546 529L528 528z"/>
<path style="fill:#5d776e; stroke:none;" d="M546 528L546 529L556 529L546 528z"/>
<path style="fill:#2e3b37; stroke:none;" d="M556 528L556 529L561 529L556 528z"/>
<path style="fill:#000000; stroke:none;" d="M754 530C743.835 528.182 748.477 537.88 755 540C756.265 537.686 760.309 524.128 754 530M1027.96 528.657C1020.68 529.141 1019.59 538.565 1026.94 538.565C1032.1 538.565 1035.23 528.174 1027.96 528.657z"/>
<path style="fill:#546b64; stroke:none;" d="M458 532L458 531L456 531L456 530L459 530C455.991 528.31 453.911 531.14 458 532z"/>
<path style="fill:#000000; stroke:none;" d="M768 531C769.493 539.222 767.716 546.864 768.224 555C768.593 560.929 770.837 569.451 766.965 574.725C764.815 577.653 761.193 577.096 758 577L758 547L746 548L746 550L751 550L751 561C751 564.884 751.867 570.174 750.155 573.784C748.091 578.137 742.398 576.857 740.717 572.899C738.143 566.837 741.392 559.326 739.479 553.064C736.941 544.753 727.635 545.515 723 551L722 551C716.078 545.658 708.174 545.93 704 553L703 553L704 547L692 548C696.401 555.085 704.466 573.392 692 578L692 580L709 579L709 578C700.348 574.801 700.045 552.522 710.067 550.323C721.614 547.789 718.943 574.104 713 578L713 579L727 580C725.475 576.005 723.148 573.559 723.015 568.999C722.927 566.01 722.947 562.99 723.011 560C723.108 555.497 726.598 544.942 732.479 551.258C737.598 556.755 736.372 574.364 729 577L729 579L781 579L781 577C774.828 575.764 774.197 570.658 774.027 565C773.667 553.022 774 540.984 774 529L768 531z"/>
<path style="fill:#576d85; stroke:none;" d="M774 529L774 557L775 557L774 529z"/>
<path style="fill:#587068; stroke:none;" d="M462 530L462 531L465 531L462 530z"/>
<path style="fill:#5d776e; stroke:none;" d="M478 530L478 531L487 531L478 530z"/>
<path style="fill:#2e3b37; stroke:none;" d="M487 530L487 531L494 531L487 530z"/>
<path style="fill:#5d776e; stroke:none;" d="M528 530L528 531L537 531L528 530z"/>
<path style="fill:#2e3b37; stroke:none;" d="M537 530L537 531L544 531L537 530z"/>
<path style="fill:#3b4a5a; stroke:none;" d="M626 530L626 531L655 531L626 530z"/>
<path style="fill:#1d252c; stroke:none;" d="M655 530L655 531L663 531L655 530z"/>
<path style="fill:#000000; stroke:none;" d="M620 531L620 532L627 532C627 545.515 634.296 572.624 619 579L619 580L644 579L644 577C633.936 575.046 635 563.104 635 555L648 555L651 562L650 548L648 548L648 554L636 554L637 532C647.393 532 660.333 532.851 661 546L664 546L666 530L620 531z"/>
<path style="fill:#3b4a5a; stroke:none;" d="M830 530L830 531L859 531L830 530z"/>
<path style="fill:#1d252c; stroke:none;" d="M859 530L859 531L867 531L859 530z"/>
<path style="fill:#000000; stroke:none;" d="M825 531L825 532L832 532C832 543.306 838.519 575.841 823 578L823 580L848 579L848 577C838.452 575.113 840 562.651 840 555L852 555L855 562L855 549C853.515 550.187 852.288 551.954 850.624 552.892C837.37 560.368 841 538.295 841 532C851.581 532 864.811 532.719 866 546L868 546L871 530L825 531z"/>
<path style="fill:#364540; stroke:none;" d="M495.667 531.333L496.333 531.667L495.667 531.333z"/>
<path style="fill:#35433e; stroke:none;" d="M545.667 531.333L546.333 531.667L545.667 531.333z"/>
<path style="fill:#313d4a; stroke:none;" d="M762 533L768 533C765.918 530.934 764.082 530.934 762 533z"/>
<path style="fill:#3c4b5b; stroke:none;" d="M824 531L829 533L829 532L824 531z"/>
<path style="fill:#435466; stroke:none;" d="M1020.33 531.667L1020.67 532.333L1020.33 531.667z"/>
<path style="fill:#51675f; stroke:none;" d="M477 532L477 542L478 542L477 532z"/>
<path style="fill:#5d776e; stroke:none;" d="M498.667 532.333L499.333 532.667L498.667 532.333z"/>
<path style="fill:#546b64; stroke:none;" d="M527 532L527 542L528 542L527 532z"/>
<path style="fill:#5d776e; stroke:none;" d="M548.667 532.333L549.333 532.667L548.667 532.333z"/>
<path style="fill:#000000; stroke:none;" d="M763 532L763 533L767 533L763 532z"/>
<path style="fill:#415264; stroke:none;" d="M831 532L831 551L832 551L831 532z"/>
<path style="fill:#4e6277; stroke:none;" d="M841 532L841 540L842 540L841 532z"/>
<path style="fill:#354351; stroke:none;" d="M768 533L768 550L769 550L768 533z"/>
<path style="fill:#394757; stroke:none;" d="M1047 535L1047 539L1048 539L1047 535z"/>
<path style="fill:#000000; stroke:none;" d="M1048 535C1046.76 542.066 1042.89 546.186 1037 550L1037 551L1043 551C1043 558.575 1041.17 569.297 1045.93 575.811C1049.1 580.162 1059.75 580.719 1058.43 573.19C1057.53 568.06 1053.56 572.352 1053 575L1055 575L1055 571C1057.3 574.328 1053.99 578.835 1050.78 575.323C1044.86 568.837 1047.51 550.485 1057 550L1057 548L1049 548L1048 535z"/>
<path style="fill:#6b887f; stroke:none;" d="M511.333 536.667L511.667 537.333L511.333 536.667z"/>
<path style="fill:#6d8b81; stroke:none;" d="M561.333 536.667L561.667 537.333L561.333 536.667z"/>
<path style="fill:#46586b; stroke:none;" d="M1049 536L1049 539L1050 539L1049 536z"/>
<path style="fill:#303c49; stroke:none;" d="M636 540L636 546L637 546L636 540z"/>
<path style="fill:#252e38; stroke:none;" d="M865 540L865 546L866 546L865 540z"/>
<path style="fill:#82a599; stroke:none;" d="M508 541L508 545L509 545L508 541z"/>
<path style="fill:#81a499; stroke:none;" d="M558 541L558 545L559 545L558 541z"/>
<path style="fill:#384742; stroke:none;" d="M512 544L512 548L513 548L512 544z"/>
<path style="fill:#394944; stroke:none;" d="M562 544L562 548L563 548L562 544z"/>
<path style="fill:#435466; stroke:none;" d="M1049 544L1049 548L1050 548L1049 544z"/>
<path style="fill:#000000; stroke:none;" d="M777 546L777 547C785.197 551.867 795.384 576.041 789.991 584.996C786.804 590.288 777.59 590.526 782 587L781 590C786.976 588.719 781.725 585.079 778 585C778.476 594.319 787.095 594.321 791.578 586.962C797.904 576.579 795.942 548.6 811 547L811 546L798 546C800.914 552.687 797.605 561.064 796 568C791.982 560.158 787.917 552.841 793 545L777 546z"/>
<path style="fill:#586f87; stroke:none;" d="M798 545L798 546L808 546L798 545z"/>
<path style="fill:#000000; stroke:none;" d="M1004 545L993 550L993 551L999 552C999.426 556.883 1002.98 582.99 990.412 575.677C985.123 572.599 987.043 553.272 988 548L978 549L978 550C983.68 553.527 982.522 575.565 974.095 575.565C971.067 575.565 970.294 571.23 970.091 568.999C969.402 561.444 970 553.586 970 546L959 549L959 551L963 551C963.201 558.069 963.454 568.536 966.73 574.899C970.714 582.636 978.979 577.325 982 572L983 572L983 579L1012 579L1012 577C1001.35 574.816 1004.64 557.556 1007 550L1006 545L1004 545z"/>
<path style="fill:#405162; stroke:none;" d="M661.667 546.333L662.333 546.667L661.667 546.333z"/>
<path style="fill:#000000; stroke:none;" d="M672 557L672 553L668 553L670 555L670 556C662.098 550.986 674.837 544.329 678.85 551.167C680.358 553.736 679.992 557.144 680 560C675.523 560.128 669.979 560.317 666.156 562.95C660.441 566.887 661.135 576.114 668.064 578.243C673.563 579.933 678.175 576.453 682 573C684.19 578.451 689.675 580.486 692 574L691 574L686 577C686 569.812 688.348 557.542 684.715 551.153C681.4 545.324 670.043 544.118 665.732 549.493C661.684 554.541 668.079 556.8 672 557z"/>
<path style="fill:#313e4b; stroke:none;" d="M711 546L711 547L715 547L711 546z"/>
<path style="fill:#33404e; stroke:none;" d="M840 546L840 552L841 552L840 546z"/>
<path style="fill:#000000; stroke:none;" d="M876 557L876 553L872 554L872 555L875 554C872.234 555.272 869.992 553.253 872.513 550.58C879.911 542.738 884.947 553.758 885 560C880.108 560.067 873.451 560.202 869.648 563.784C865.177 567.998 866.818 576.918 873.031 578.416C878.36 579.701 882.978 575.817 887 573C889.042 579.043 894.195 580.056 897 574L890 577C890 569.974 892.752 559.524 890.155 553.014C887.424 546.165 876.939 543.567 871.413 548.73C866.439 553.377 871.259 556.754 876 557z"/>
<path style="fill:#425264; stroke:none;" d="M916.667 546.333L917.333 546.667L916.667 546.333z"/>
<path style="fill:#000000; stroke:none;" d="M1008 548L1008 549C1013 548.34 1017.91 551.248 1012 555L1014 551C1008.03 552.984 1013.11 557.645 1016.4 554.392C1022.43 548.424 1012.4 545.921 1008 548M1076 578L1076 577C1069.61 571.986 1063.92 556.207 1071.63 549.622C1077.95 544.232 1079.94 557.415 1080 561L1074 561L1074 562L1086 563C1085.96 559.974 1085.92 556.923 1085.01 554.003C1082.25 545.187 1071.43 543.66 1065.3 550.189C1056.2 559.874 1063.02 577.72 1076 578M1098 570L1095 573C1096.54 572.92 1101.1 571.544 1098.19 569.176C1094 565.772 1091.13 573.471 1093.72 576.588C1100.35 584.549 1114.27 575.546 1111.48 566.064C1109.79 560.365 1093.6 557.362 1096.26 551.203C1099.65 543.327 1107.23 553.688 1110 556L1110 548C1106.16 548.669 1102.83 546.079 1099 546.732C1092.42 547.856 1088.87 556.508 1093.52 561.542C1096.36 564.612 1100.85 565.404 1103.88 568.286C1105.58 569.894 1107.44 572.26 1106.07 574.646C1102.06 581.634 1088.94 573.374 1098 570z"/>
<path style="fill:#3f5061; stroke:none;" d="M1101.67 546.333L1102.33 546.667L1101.67 546.333z"/>
<path style="fill:#78988d; stroke:none;" d="M508.333 547.667L508.667 548.333L508.333 547.667z"/>
<path style="fill:#76968c; stroke:none;" d="M558.333 547.667L558.667 548.333L558.333 547.667z"/>
<path style="fill:#455669; stroke:none;" d="M790 547L790 548L793 548L790 547z"/>
<path style="fill:#384756; stroke:none;" d="M805 547L805 548L810 548L805 547z"/>
<path style="fill:#485b6e; stroke:none;" d="M904 547L904 548L908 548L904 547z"/>
<path style="fill:#000000; stroke:none;" d="M916 547L916 549L920 549L913 569L912 569L905 550L909 550L909 548L894 548L894 549L912 578C914.908 569.13 917.767 551.477 928 549L916 547z"/>
<path style="fill:#34414f; stroke:none;" d="M920 547L920 548L928 548L920 547z"/>
<path style="fill:#000000; stroke:none;" d="M944 579L944 578C932.316 576.758 929.002 555.149 940.145 550.296C944.702 548.311 948.879 553.165 950.135 557.011C952.482 564.199 950.744 572.182 945 577C951.944 578.612 956.096 569.776 956.772 564C957.809 555.139 950.792 547.976 942 547.462C921.574 546.267 922.927 578.666 944 579z"/>
<path style="fill:#354351; stroke:none;" d="M1005 547L1009 550L1005 547z"/>
<path style="fill:#000000; stroke:none;" d="M1020 548L1020 550L1025 550C1025 558.933 1028.19 573.138 1019 578L1019 579L1036 578L1036 577C1027.54 573.972 1030.35 554.301 1032 547L1020 548z"/>
<path style="fill:#435466; stroke:none;" d="M1073 547L1073 548L1076 548L1073 547z"/>
<path style="fill:#3b4a5a; stroke:none;" d="M727 548L727 549L731 549L727 548z"/>
<path style="fill:#3c4b5c; stroke:none;" d="M853.667 548.333L854.333 548.667L853.667 548.333z"/>
<path style="fill:#3d4c5c; stroke:none;" d="M961 548L961 549L964 549L961 548z"/>
<path style="fill:#323f4c; stroke:none;" d="M978 548L978 549L982 549L978 548z"/>
<path style="fill:#546a80; stroke:none;" d="M1031 548L1031 553L1032 553L1031 548z"/>
<path style="fill:#7694b4; stroke:none;" d="M1069 561L1079 561C1078.99 545.955 1069.01 545.981 1069 561z"/>
<path style="fill:#3b4c46; stroke:none;" d="M476 549L476 556L477 556L476 549z"/>
<path style="fill:#5f7971; stroke:none;" d="M509.667 549.333L510.333 549.667L509.667 549.333z"/>
<path style="fill:#3e4e49; stroke:none;" d="M526 549L526 556L527 556L526 549z"/>
<path style="fill:#617b72; stroke:none;" d="M559.667 549.333L560.333 549.667L559.667 549.333z"/>
<path style="fill:#5a7189; stroke:none;" d="M757 549L757 562L758 562L757 549z"/>
<path style="fill:#3f5061; stroke:none;" d="M894.667 549.333L895.333 549.667L894.667 549.333z"/>
<path style="fill:#7694b4; stroke:none;" d="M939.267 550.18C929.446 555.578 933.627 583.987 946.702 575.85C953.862 571.395 951.163 543.643 939.267 550.18z"/>
<path style="fill:#394757; stroke:none;" d="M992 549L992 551L994 549L992 549z"/>
<path style="fill:#435466; stroke:none;" d="M627 550L627 556L628 556L627 550z"/>
<path style="fill:#3b4a5a; stroke:none;" d="M703 550L703 553L705 552L705 551L703 550z"/>
<path style="fill:#405162; stroke:none;" d="M748 550L748 551L750 553L751 553L748 550z"/>
<path style="fill:#546980; stroke:none;" d="M1024 550L1024 556L1025 556L1024 550z"/>
<path style="fill:#3e4e5f; stroke:none;" d="M694.667 551.333L695.333 551.667L694.667 551.333z"/>
<path style="fill:#435466; stroke:none;" d="M868 551L868 554L869 554L868 551z"/>
<path style="fill:#364352; stroke:none;" d="M884 551L884 556L885 556L884 551z"/>
<path style="fill:#212932; stroke:none;" d="M981 551L981 559L982 559L981 551z"/>
<path style="fill:#546980; stroke:none;" d="M1042 551L1042 566L1043 566L1042 551z"/>
<path style="fill:#51667c; stroke:none;" d="M1049 551L1049 560L1050 560L1049 551z"/>
<path style="fill:#799a8f; stroke:none;" d="M492.333 552.667L492.667 553.333L492.333 552.667z"/>
<path style="fill:#76968c; stroke:none;" d="M542.333 552.667L542.667 553.333L542.333 552.667z"/>
<path style="fill:#33404e; stroke:none;" d="M1109.33 552.667L1109.67 553.333L1109.33 552.667z"/>
<path style="fill:#3b4a5a; stroke:none;" d="M636 553L636 554L648 554L636 553z"/>
<path style="fill:#33404e; stroke:none;" d="M734 553L734 569L735 569L734 553z"/>
<path style="fill:#3b4a5a; stroke:none;" d="M841 553L841 554L852 554L841 553z"/>
<path style="fill:#384655; stroke:none;" d="M870.333 553.667L870.667 554.333L870.333 553.667z"/>
<path style="fill:#3f4f60; stroke:none;" d="M905.333 553.667L905.667 554.333L905.333 553.667z"/>
<path style="fill:#33404e; stroke:none;" d="M1079 553L1079 561L1080 561L1079 553z"/>
<path style="fill:#87ac9f; stroke:none;" d="M494 554L494 565L495 565L494 554z"/>
<path style="fill:#88ada0; stroke:none;" d="M544 554L544 565L545 565L544 554z"/>
<path style="fill:#51657b; stroke:none;" d="M697 554L697 569L698 569L697 554z"/>
<path style="fill:#27313c; stroke:none;" d="M740 554L740 564L741 564L740 554z"/>
<path style="fill:#46586b; stroke:none;" d="M876.333 554.667L876.667 555.333L876.333 554.667z"/>
<path style="fill:#323f4c; stroke:none;" d="M635 555L635 568L636 568L635 555z"/>
<path style="fill:#586f87; stroke:none;" d="M636 555L636 556L648 556L636 555z"/>
<path style="fill:#405061; stroke:none;" d="M686 555L686 564L687 564L686 555z"/>
<path style="fill:#586f87; stroke:none;" d="M840 555L840 556L852 556L840 555z"/>
<path style="fill:#252e38; stroke:none;" d="M1068 555L1068 561L1069 561L1068 555z"/>
<path style="fill:#69857c; stroke:none;" d="M465 556L465 564L466 564L465 556z"/>
<path style="fill:#668278; stroke:none;" d="M515 556L515 564L516 564L515 556z"/>
<path style="fill:#26303a; stroke:none;" d="M832 556L832 566L833 566L832 556z"/>
<path style="fill:#303c49; stroke:none;" d="M999 556L999 573L1000 573L999 556z"/>
<path style="fill:#46586b; stroke:none;" d="M1012.67 556.333L1013.33 556.667L1012.67 556.333z"/>
<path style="fill:#232c36; stroke:none;" d="M1061 556L1061 567L1062 567L1061 556z"/>
<path style="fill:#3b4a5a; stroke:none;" d="M667 557L667 558L670 558L667 557z"/>
<path style="fill:#566c83; stroke:none;" d="M703 557L703 573L704 573L703 557z"/>
<path style="fill:#5a718a; stroke:none;" d="M768 557L768 572L769 572L768 557z"/>
<path style="fill:#26303b; stroke:none;" d="M774 557L774 571L775 571L774 557z"/>
<path style="fill:#3b4a5a; stroke:none;" d="M871 557L871 558L874 558L871 557z"/>
<path style="fill:#5a718a; stroke:none;" d="M950 557L950 570L951 570L950 557z"/>
<path style="fill:#8cb2a6; stroke:none;" d="M476 558L476 559L482 559L476 558M483 558L483 559L491 559L483 558M526 558L526 559L532 559L526 558M533 558L533 559L541 559L533 558z"/>
<path style="fill:#596f88; stroke:none;" d="M1024 558L1024 566L1025 566L1024 558z"/>
<path style="fill:#303c49; stroke:none;" d="M648.333 559.667L648.667 560.333L648.333 559.667z"/>
<path style="fill:#354250; stroke:none;" d="M717 559L717 566L718 566L717 559z"/>
<path style="fill:#36443f; stroke:none;" d="M487 560L487 561L491 561L487 560M537 560L537 561L541 561L537 560z"/>
<path style="fill:#2b3541; stroke:none;" d="M933 560L933 566L934 566L933 560z"/>
<path style="fill:#3b4a5a; stroke:none;" d="M676 561L676 562L680 562L676 561M881 561L881 562L885 562L881 561z"/>
<path style="fill:#1d252c; stroke:none;" d="M1069 561L1069 563L1084 563L1069 561z"/>
<path style="fill:#7694b4; stroke:none;" d="M680 562C678.076 562.032 675.989 561.902 674.133 562.521C660.34 567.119 677.914 585.096 680.342 569.001C680.684 566.732 680.183 564.269 680 562z"/>
<path style="fill:#3e4e5f; stroke:none;" d="M680 562L680 567L681 567L680 562z"/>
<path style="fill:#7694b4; stroke:none;" d="M885 562C882.732 562.019 880.213 561.826 878.069 562.717C865.086 568.115 881.631 584.063 884.702 569.001C885.164 566.735 884.995 564.299 885 562z"/>
<path style="fill:#53687e; stroke:none;" d="M890 562L890 577L891 577L890 562z"/>
<path style="fill:#26303a; stroke:none;" d="M980 562L980 568L981 568L980 562z"/>
<path style="fill:#2e3946; stroke:none;" d="M1031 562L1031 576L1032 576L1031 562z"/>
<path style="fill:#4f6379; stroke:none;" d="M970 563L970 574L971 574L970 563z"/>
<path style="fill:#99c2b4; stroke:none;" d="M465 564L465 576L466 576L465 564z"/>
<path style="fill:#96bfb2; stroke:none;" d="M515 564L515 576L516 576L515 564z"/>
<path style="fill:#4e6277; stroke:none;" d="M740 564L740 575L741 575L740 564z"/>
<path style="fill:#47596c; stroke:none;" d="M964 564L964 569L965 569L964 564z"/>
<path style="fill:#2a3531; stroke:none;" d="M475 565L475 571L476 571L475 565z"/>
<path style="fill:#2d3935; stroke:none;" d="M525 565L525 571L526 571L525 565z"/>
<path style="fill:#323f4d; stroke:none;" d="M796.333 565.667L796.667 566.333L796.333 565.667z"/>
<path style="fill:#344250; stroke:none;" d="M627 566L627 570L628 570L627 566z"/>
<path style="fill:#394757; stroke:none;" d="M956.333 566.667L956.667 567.333L956.333 566.667z"/>
<path style="fill:#000000; stroke:none;" d="M1081 573L1079 571C1083.1 567.372 1084.03 571.019 1083 575C1094.94 566.158 1070.53 565.199 1081 573z"/>
<path style="fill:#7da094; stroke:none;" d="M495.333 567.667L495.667 568.333L495.333 567.667z"/>
<path style="fill:#7fa196; stroke:none;" d="M545.333 567.667L545.667 568.333L545.333 567.667z"/>
<path style="fill:#222b34; stroke:none;" d="M866 567L866 574L867 574L866 567z"/>
<path style="fill:#47596c; stroke:none;" d="M1069.33 567.667L1069.67 568.333L1069.33 567.667z"/>
<path style="fill:#394858; stroke:none;" d="M668 568L668 573L669 573L668 568z"/>
<path style="fill:#485a6d; stroke:none;" d="M1005 568L1005 572L1006 572L1005 568z"/>
<path style="fill:#29333e; stroke:none;" d="M1048 568L1048 572L1049 572L1048 568z"/>
<path style="fill:#374554; stroke:none;" d="M1086 568L1086 572L1087 572L1086 568z"/>
<path style="fill:#26303b; stroke:none;" d="M697 569L697 573L698 573L697 569z"/>
<path style="fill:#415163; stroke:none;" d="M934.333 569.667L934.667 570.333L934.333 569.667z"/>
<path style="fill:#425264; stroke:none;" d="M979.333 569.667L979.667 570.333L979.333 569.667z"/>
<path style="fill:#415264; stroke:none;" d="M1077.33 569.667L1077.67 570.333L1077.33 569.667z"/>
<path style="fill:#323f4d; stroke:none;" d="M1079.33 569.667L1079.67 570.333L1079.33 569.667z"/>
<path style="fill:#425365; stroke:none;" d="M907.333 571.667L907.667 572.333L907.333 571.667z"/>
<path style="fill:#323e4c; stroke:none;" d="M1055.67 571.333L1056.33 571.667L1055.67 571.333z"/>
<path style="fill:#3e4e5f; stroke:none;" d="M1091 571L1091 574L1092 574L1091 571z"/>
<path style="fill:#3a4959; stroke:none;" d="M790 572L790 575L791 575L790 572z"/>
<path style="fill:#4c5f74; stroke:none;" d="M982 572L983 575L982 572z"/>
<path style="fill:#384756; stroke:none;" d="M733.333 574.667L733.667 575.333L733.333 574.667z"/>
<path style="fill:#1d252c; stroke:none;" d="M1072 578L1072 579L1084 575L1072 578z"/>
<path style="fill:#4d625b; stroke:none;" d="M515 576L515 579L516 579L515 576z"/>
<path style="fill:#374554; stroke:none;" d="M642.667 576.333L643.333 576.667L642.667 576.333z"/>
<path style="fill:#252e38; stroke:none;" d="M671 576L671 577L675 577L671 576z"/>
<path style="fill:#495b6f; stroke:none;" d="M742 576L742 577L746 577L742 576z"/>
<path style="fill:#53687e; stroke:none;" d="M791 576L791 580L792 580L791 576z"/>
<path style="fill:#405162; stroke:none;" d="M909.333 576.667L909.667 577.333L909.333 576.667z"/>
<path style="fill:#3c4b5c; stroke:none;" d="M989 576L989 577L993 577L989 576z"/>
<path style="fill:#3e4d5e; stroke:none;" d="M1007 576L1007 577L1011 577L1007 576z"/>
<path style="fill:#2a3540; stroke:none;" d="M705 577L705 578L709 578L705 577z"/>
<path style="fill:#3b4a5a; stroke:none;" d="M763 577L763 578L766 578L763 577z"/>
<path style="fill:#445668; stroke:none;" d="M880.667 577.333L881.333 577.667L880.667 577.333z"/>
<path style="fill:#323f4d; stroke:none;" d="M938 577L938 578L946 579L938 577z"/>
<path style="fill:#303c49; stroke:none;" d="M1020.67 577.333L1021.33 577.667L1020.67 577.333z"/>
<path style="fill:#28322f; stroke:none;" d="M476 578L476 582L477 582L476 578z"/>
<path style="fill:#2a3531; stroke:none;" d="M526 578L526 582L527 582L526 578z"/>
<path style="fill:#374554; stroke:none;" d="M618 578L618 580L620 578L618 578z"/>
<path style="fill:#313d4a; stroke:none;" d="M718 578L718 579L723 579L718 578z"/>
<path style="fill:#586f87; stroke:none;" d="M733 578L733 579L745 579L733 578z"/>
<path style="fill:#485b6e; stroke:none;" d="M749 578L749 579L761 579L749 578z"/>
<path style="fill:#3a4958; stroke:none;" d="M766 578L766 579L775 579L766 578z"/>
<path style="fill:#415264; stroke:none;" d="M877.667 578.333L878.333 578.667L877.667 578.333z"/>
<path style="fill:#2b3742; stroke:none;" d="M997 578L997 579L1004 579L997 578z"/>
<path style="fill:#495c70; stroke:none;" d="M1023 578L1023 579L1036 579L1023 578z"/>
<path style="fill:#3b4a5a; stroke:none;" d="M713 579L713 580L716 580L713 579z"/>
<path style="fill:#3d4c5c; stroke:none;" d="M1019.67 579.333L1020.33 579.667L1019.67 579.333z"/>
<path style="fill:#3b4a5a; stroke:none;" d="M1099 579L1099 580L1104 580L1099 579z"/>
<path style="fill:#719085; stroke:none;" d="M464 581L464 584L465 584L464 581z"/>
<path style="fill:#6e8c82; stroke:none;" d="M514 581L514 584L515 584L514 581z"/>
<path style="fill:#3b4b45; stroke:none;" d="M464.333 584.667L464.667 585.333L464.333 584.667z"/>
<path style="fill:#374641; stroke:none;" d="M514.333 584.667L514.667 585.333L514.333 584.667z"/>
<path style="fill:#3b4a5a; stroke:none;" d="M777 586L777 589L778 589L777 586z"/>
<path style="fill:#4f6378; stroke:none;" d="M779 587L784 592L784 591L779 587z"/>
<path style="fill:#7694b4; stroke:none;" d="M780 587L780 589L782 589L782 587L780 587z"/>
<path style="fill:#455669; stroke:none;" d="M784 587L784 590L785 590L784 587z"/>
<path style="fill:#88ada0; stroke:none;" d="M483 588L483 589L487 589L483 588z"/>
<path style="fill:#8aafa3; stroke:none;" d="M533 588L533 589L537 589L533 588z"/>
<path style="fill:#5d776e; stroke:none;" d="M457 590L457 591L460 591L457 590M507 590L507 591L510 591L507 590z"/>
<path style="fill:#435650; stroke:none;" d="M453 591L453 593L455 591L453 591z"/>
<path style="fill:#42544e; stroke:none;" d="M464 591L464 592L470 592L464 591z"/>
<path style="fill:#5d776e; stroke:none;" d="M473 591L473 592L481 592L473 591z"/>
<path style="fill:#41524c; stroke:none;" d="M503 591L503 593L505 591L503 591z"/>
<path style="fill:#41534d; stroke:none;" d="M514 591L514 592L520 592L514 591z"/>
<path style="fill:#5d776e; stroke:none;" d="M523 591L523 592L531 592L523 591z"/>
</svg>
